<?xml version="1.0" encoding="UTF-8"?>
<svg xmlns="http://www.w3.org/2000/svg" xmlns:xlink="http://www.w3.org/1999/xlink" width="0" height="0">
<defs>
<symbol viewBox="0 0 24 24" fill="none" stroke="currentColor" stroke-width="2" stroke-linecap="round" stroke-linejoin="round" id="ArrowRight">
  <path d="M5 12h14"></path>
  <path d="m12 5 7 7-7 7"></path>
</symbol>
<symbol viewBox="0 0 24 24" fill="none" stroke="currentColor" stroke-width="2" stroke-linecap="round" stroke-linejoin="round" id="ExternalLink">
  <path d="M15 3h6v6"></path>
  <path d="M10 14 21 3"></path>
  <path d="M18 13v6a2 2 0 0 1-2 2H5a2 2 0 0 1-2-2V8a2 2 0 0 1 2-2h6"></path>
</symbol>
<symbol viewBox="0 0 24 24" fill="currentColor" id="Github">
  <path     d="M12 0C5.37 0 0 5.373 0 12c0 5.303 3.438 9.8 8.205 11.387.6.113.82-.258.82-.577 0-.285-.01-1.04-.015-2.04-3.338.726-4.042-1.61-4.042-1.61-.546-1.387-1.333-1.757-1.333-1.757-1.09-.745.083-.729.083-.729 1.205.085 1.84 1.238 1.84 1.238 1.07 1.835 2.809 1.305 3.495.998.108-.775.418-1.305.762-1.605-2.665-.3-5.466-1.332-5.466-5.93 0-1.31.468-2.382 1.236-3.22-.124-.303-.535-1.524.117-3.176 0 0 1.008-.322 3.3 1.23A11.51 11.51 0 0 1 12 5.803c1.02.005 2.047.138 3.006.404 2.29-1.552 3.297-1.23 3.297-1.23.653 1.653.242 2.874.118 3.176.77.838 1.235 1.91 1.235 3.22 0 4.61-2.804 5.625-5.475 5.92.43.372.823 1.102.823 2.222 0 1.606-.015 2.898-.015 3.293 0 .322.216.694.825.576C20.565 21.796 24 17.3 24 12c0-6.627-5.373-12-12-12z" ></path>
</symbol>
<symbol viewBox="0 0 120 120" role="img" id="UtlogiclabsIcon">
  <title>UTLogicLabs icon</title>
  <desc>Circuit-board node mark for UTLogicLabs</desc>

  <style>
    .mark-bg { fill: #0d1117; }
    .trace { stroke: #3b82f6; stroke-width: 1.5; fill: none; }
    .trace-dim { stroke: #1a2a4a; stroke-width: 1; fill: none; }
    .node-outer { fill: #0d1117; stroke: #3b82f6; stroke-width: 1.5; }
    .node-inner { fill: #3b82f6; }
    .node-dim { fill: #1a2a4a; }
  </style>

  <rect x="0" y="0" width="120" height="120" rx="8" class="mark-bg" stroke="#1a2a4a" stroke-width="1"></rect>

  
  <line x1="20" y1="20" x2="20" y2="40" class="trace-dim"></line>
  <line x1="20" y1="40" x2="40" y2="40" class="trace-dim"></line>
  <line x1="100" y1="100" x2="100" y2="80" class="trace-dim"></line>
  <line x1="100" y1="80" x2="80" y2="80" class="trace-dim"></line>
  <line x1="60" y1="20" x2="60" y2="0" class="trace-dim" stroke-dasharray="3 3"></line>
  <line x1="100" y1="40" x2="120" y2="40" class="trace-dim" stroke-dasharray="3 3"></line>

  
  <polyline points="20,30 20,60 40,60" class="trace"></polyline>
  <polyline points="60,30 60,60" class="trace"></polyline>
  <polyline points="60,60 80,60 80,90 100,90" class="trace"></polyline>
  <polyline points="100,30 100,60 80,60" class="trace"></polyline>
  <polyline points="20,90 40,90 40,60" class="trace"></polyline>
  <polyline points="40,90 60,90 60,60" class="trace"></polyline>

  
  <circle cx="20" cy="20" r="4" class="node-dim"></circle>
  <circle cx="100" cy="100" r="4" class="node-dim"></circle>

  
  <circle cx="20" cy="30" r="5" class="node-outer"></circle>
  <circle cx="20" cy="30" r="2.5" class="node-inner"></circle>

  <circle cx="60" cy="30" r="5" class="node-outer"></circle>
  <circle cx="60" cy="30" r="2.5" class="node-inner"></circle>

  <circle cx="100" cy="30" r="5" class="node-outer"></circle>
  <circle cx="100" cy="30" r="2.5" class="node-inner"></circle>

  <circle cx="40" cy="60" r="4" class="node-outer"></circle>
  <circle cx="40" cy="60" r="2" class="node-inner"></circle>

  <circle cx="60" cy="60" r="6" class="node-outer" stroke-width="2"></circle>
  <circle cx="60" cy="60" r="3" class="node-inner"></circle>

  <circle cx="80" cy="60" r="4" class="node-outer"></circle>
  <circle cx="80" cy="60" r="2" class="node-inner"></circle>

  <circle cx="20" cy="90" r="5" class="node-outer"></circle>
  <circle cx="20" cy="90" r="2.5" class="node-inner"></circle>

  <circle cx="40" cy="90" r="4" class="node-outer"></circle>
  <circle cx="40" cy="90" r="2" class="node-inner"></circle>

  <circle cx="60" cy="90" r="5" class="node-outer"></circle>
  <circle cx="60" cy="90" r="2.5" class="node-inner"></circle>

  <circle cx="100" cy="90" r="5" class="node-outer"></circle>
  <circle cx="100" cy="90" r="2.5" class="node-inner"></circle>
</symbol>
<symbol viewBox="0 0 680 240" role="img" id="UtlogiclabsLogoOutlined (1)">
  <title>UTLogicLabs logo</title>
  <desc>UTLogicLabs wordmark with circuit-board mark</desc>
  <style>
    .mark-bg    { fill: #0d1117; }
    .trace      { stroke: #3b82f6; stroke-width: 0.8; fill: none; }
    .trace-dim  { stroke: #1a2a4a; stroke-width: 0.6; fill: none; }
    .node-outer { fill: #0d1117; stroke: #3b82f6; stroke-width: 0.8; }
    .node-inner { fill: #3b82f6; }
    .node-dim   { fill: #1a2a4a; }
    .bracket    { fill: none; stroke: #3b82f6; stroke-width: 2; }
  </style>

  
  <rect x="40" y="112.4" width="57" height="57" rx="3.8" class="mark-bg" stroke="#1a2a4a" stroke-width="0.8"></rect>

  <line x1="49.5" y1="121.9" x2="49.5" y2="131.4" class="trace-dim"></line>
  <line x1="49.5" y1="131.4" x2="59" y2="131.4" class="trace-dim"></line>
  <line x1="87.5" y1="159.9" x2="87.5" y2="150.4" class="trace-dim"></line>
  <line x1="87.5" y1="150.4" x2="78" y2="150.4" class="trace-dim"></line>
  <line x1="68.5" y1="121.9" x2="68.5" y2="112.4" class="trace-dim" stroke-dasharray="2 2"></line>
  <line x1="87.5" y1="131.4" x2="97" y2="131.4" class="trace-dim" stroke-dasharray="2 2"></line>

  <polyline points="49.5,126.7 49.5,140.9 59,140.9" class="trace"></polyline>
  <polyline points="68.5,126.7 68.5,140.9" class="trace"></polyline>
  <polyline points="68.5,140.9 78,140.9 78,155.2 87.5,155.2" class="trace"></polyline>
  <polyline points="87.5,126.7 87.5,140.9 78,140.9" class="trace"></polyline>
  <polyline points="49.5,155.2 59,155.2 59,140.9" class="trace"></polyline>
  <polyline points="59,155.2 68.5,155.2 68.5,140.9" class="trace"></polyline>

  <circle cx="49.5"  cy="121.9"  r="1.9" class="node-dim"></circle>
  <circle cx="87.5" cy="159.9" r="1.9" class="node-dim"></circle>

  <circle cx="49.5"  cy="126.7"  r="2.4"   class="node-outer"></circle><circle cx="49.5"  cy="126.7"  r="1.2" class="node-inner"></circle>
  <circle cx="68.5" cy="126.7"  r="2.4"   class="node-outer"></circle><circle cx="68.5" cy="126.7"  r="1.2" class="node-inner"></circle>
  <circle cx="87.5" cy="126.7"  r="2.4"   class="node-outer"></circle><circle cx="87.5" cy="126.7"  r="1.2" class="node-inner"></circle>
  <circle cx="59"  cy="140.9" r="1.9"   class="node-outer"></circle><circle cx="59"  cy="140.9" r="1"   class="node-inner"></circle>
  <circle cx="68.5" cy="140.9" r="2.9"   class="node-outer" stroke-width="1"></circle><circle cx="68.5" cy="140.9" r="1.4"   class="node-inner"></circle>
  <circle cx="78" cy="140.9" r="1.9"   class="node-outer"></circle><circle cx="78" cy="140.9" r="1"   class="node-inner"></circle>
  <circle cx="49.5"  cy="155.2" r="2.4"   class="node-outer"></circle><circle cx="49.5"  cy="155.2" r="1.2" class="node-inner"></circle>
  <circle cx="59"  cy="155.2" r="1.9"   class="node-outer"></circle><circle cx="59"  cy="155.2" r="1"   class="node-inner"></circle>
  <circle cx="68.5" cy="155.2" r="2.4"   class="node-outer"></circle><circle cx="68.5" cy="155.2" r="1.2" class="node-inner"></circle>
  <circle cx="87.5" cy="155.2" r="2.4"   class="node-outer"></circle><circle cx="87.5" cy="155.2" r="1.2" class="node-inner"></circle>

  
  <path fill="#3b82f6" d="M198.2842 138.4102Q193.2393 138.4102 190.9424 135.6621Q188.6455 132.9141 188.6455 127.1719L188.6455 110.3350L194.6953 110.3350L194.6953 127.1104Q194.6953 130.6992 195.5259 132.1860Q196.3564 133.6729 198.4482 133.6729Q200.5811 133.6729 201.5449 132.0938Q202.5088 130.5146 202.5088 126.9053L202.5088 110.3350L208.5586 110.3350L208.5586 126.8643Q208.5586 132.7295 206.0259 135.5698Q203.4932 138.4102 198.2842 138.4102 M234.1572 115.0107L225.8311 115.0107L225.8311 138L219.7813 138L219.7813 115.0107L211.4551 115.0107L211.4551 110.3350L234.1572 110.3350"></path>
  <path fill="#00d4a0" d="M257.4180 138L238.7354 138L238.7354 110.3350L244.7852 110.3350L244.7852 133.3242L257.4180 133.3242 M281.9297 126.8848Q281.9297 132.4014 279.1406 135.4058Q276.3516 138.4102 271.1221 138.4102Q266.0771 138.4102 263.2881 135.4058Q260.4990 132.4014 260.4990 126.8848Q260.4990 121.3887 263.2676 118.3945Q266.0361 115.4004 271.2451 115.4004Q281.9297 115.4004 281.9297 126.8848M275.9004 126.8848Q275.9004 122.9473 274.8545 121.1528Q273.8086 119.3584 271.3271 119.3584Q268.7842 119.3584 267.6665 121.1631Q266.5488 122.9678 266.5488 126.8848Q266.5488 130.8428 267.6870 132.6577Q268.8252 134.4727 271.0605 134.4727Q273.6035 134.4727 274.7520 132.6782Q275.9004 130.8838 275.9004 126.8848 M295.4492 146.9004Q291.6348 146.9004 289.2354 145.3213Q286.8359 143.7422 286.2822 140.9326L292.0449 140.2559Q292.3525 141.5889 293.3164 142.3682Q294.2803 143.1475 295.6133 143.1475Q297.6846 143.1475 298.7510 141.6606Q299.8174 140.1738 299.8174 137.2412L299.8174 136.0313L299.8584 133.6729L299.8174 133.6729Q297.9102 137.7539 293.0908 137.7539Q289.4199 137.7539 287.3896 134.8931Q285.3594 132.0322 285.3594 126.7207Q285.3594 121.3477 287.4717 118.4048Q289.5840 115.4619 293.5215 115.4619Q295.6748 115.4619 297.2949 116.4565Q298.9150 117.4512 299.8174 119.3789L299.9199 119.3789Q299.9199 118.6611 300.0122 117.4307Q300.1045 116.2002 300.2070 115.8105L305.6621 115.8105Q305.5391 118.0254 305.5391 120.9375L305.5391 137.3232Q305.5391 141.9785 302.9243 144.4395Q300.3096 146.9004 295.4492 146.9004M299.8584 126.5977Q299.8584 123.2344 298.7100 121.3271Q297.5615 119.4199 295.5723 119.4199Q293.5215 119.4199 292.4448 121.2759Q291.3682 123.1318 291.3682 126.7207Q291.3682 130.2891 292.4756 132.0220Q293.5830 133.7549 295.5313 133.7549Q297.6230 133.7549 298.7407 131.8271Q299.8584 129.8994 299.8584 126.5977 M323.3037 115.8105L323.3037 134.1035L330.5430 134.1035L330.5430 138L309.4404 138L309.4404 134.1035L317.5410 134.1035L317.5410 119.7070L311.5938 119.7070L311.5938 115.8105L323.3037 115.8105M323.3037 111.8115L317.5410 111.8115L317.5410 107.5664L323.3037 107.5664 M344.0215 138.4102Q338.9766 138.4102 336.2285 135.4058Q333.4805 132.4014 333.4805 127.0283Q333.4805 121.5322 336.2490 118.4663Q339.0176 115.4004 344.1035 115.4004Q348.0205 115.4004 350.5840 117.3691Q353.1475 119.3379 353.8037 122.8037L348 123.0908Q347.7539 121.3887 346.7695 120.3735Q345.7852 119.3584 343.9805 119.3584Q339.5303 119.3584 339.5303 126.8027Q339.5303 134.4727 344.0625 134.4727Q345.7031 134.4727 346.8105 133.4370Q347.9180 132.4014 348.1846 130.3506L353.9678 130.6172Q353.6602 132.8936 352.3374 134.6777Q351.0146 136.4619 348.8613 137.4360Q346.7080 138.4102 344.0215 138.4102"></path>
  <path fill="#3b82f6" d="M378.4385 138L359.7559 138L359.7559 110.3350L365.8057 110.3350L365.8057 133.3242L378.4385 133.3242 M388.6357 138.4102Q385.4160 138.4102 383.6113 136.6567Q381.8066 134.9033 381.8066 131.7246Q381.8066 128.2793 383.9497 126.4849Q386.0928 124.6904 390.3584 124.6289L394.9316 124.5469L394.9316 123.4189Q394.9316 121.3066 394.2139 120.2197Q393.4961 119.1328 391.8965 119.1328Q390.3994 119.1328 389.6919 119.8813Q388.9844 120.6299 388.8203 122.2705L382.8115 121.9834Q383.9189 115.4004 392.1426 115.4004Q396.2852 115.4004 398.4897 117.4307Q400.6943 119.4609 400.6943 123.3984L400.6943 131.4375Q400.6943 133.3037 401.1147 134.0112Q401.5352 134.7188 402.5195 134.7188Q403.1758 134.7188 403.7910 134.5957L403.7910 137.7129Q403.2783 137.8359 402.8682 137.9385Q402.4580 138.0410 402.0479 138.1025Q401.6377 138.1641 401.1763 138.2051Q400.7148 138.2461 400.0996 138.2461Q397.9258 138.2461 396.8901 137.1797Q395.8545 136.1133 395.6494 134.0420L395.5264 134.0420Q394.2344 136.3594 392.5835 137.3848Q390.9326 138.4102 388.6357 138.4102M394.9316 128.8535L394.9316 127.7256L392.1836 127.7666Q390.3379 127.8076 389.5073 128.1460Q388.6768 128.4844 388.2461 129.2329Q387.8154 129.9814 387.8154 131.2734Q387.8154 134.3906 390.2764 134.3906Q392.2656 134.3906 393.5986 132.8218Q394.9316 131.2529 394.9316 128.8535 M412.2861 138L406.7080 138Q406.8721 135.2109 406.8721 133.1602L406.8721 107.5664L412.6348 107.5664L412.6348 115.6465L412.5938 119.2969L412.6348 119.2969Q413.4756 117.4307 415.1675 116.4053Q416.8594 115.3799 419.1357 115.3799Q422.9502 115.3799 425.0010 118.3945Q427.0518 121.4092 427.0518 126.9258Q427.0518 132.1348 424.8779 135.2725Q422.7041 138.4102 418.9512 138.4102Q416.8184 138.4102 415.2085 137.3950Q413.5986 136.3799 412.6758 134.3906L412.5938 134.3906Q412.5938 135.0674 412.5015 136.2671Q412.4092 137.4668 412.2861 138M412.5527 126.7822Q412.5527 129.2432 413.0962 130.9453Q413.6396 132.6475 414.6343 133.5601Q415.6289 134.4727 416.9209 134.4727Q418.8896 134.4727 419.9663 132.5859Q421.0430 130.6992 421.0430 126.9258Q421.0430 123.1729 419.9868 121.2349Q418.9307 119.2969 416.8799 119.2969Q414.8701 119.2969 413.7114 121.2656Q412.5527 123.2344 412.5527 126.7822 M450.6816 131.5195Q450.6816 134.7393 448.0464 136.5747Q445.4111 138.4102 440.7559 138.4102Q436.1826 138.4102 433.7524 136.9644Q431.3223 135.5186 430.5225 132.4629L435.5879 131.7041Q436.0186 133.2832 437.0747 133.9395Q438.1309 134.5957 440.7559 134.5957Q443.1758 134.5957 444.2832 133.9805Q445.3906 133.3652 445.3906 132.0527Q445.3906 130.9863 444.4985 130.3608Q443.6064 129.7354 441.4736 129.3047Q436.5928 128.3408 434.8906 127.5103Q433.1885 126.6797 432.2964 125.3569Q431.4043 124.0342 431.4043 122.1064Q431.4043 118.9277 433.8550 117.1538Q436.3057 115.3799 440.7969 115.3799Q444.7549 115.3799 447.1646 116.9180Q449.5742 118.4561 450.1689 121.3682L445.0625 121.9014Q444.8164 120.5479 443.8525 119.8813Q442.8887 119.2148 440.7969 119.2148Q438.7461 119.2148 437.7207 119.7378Q436.6953 120.2607 436.6953 121.4912Q436.6953 122.4551 437.4849 123.0190Q438.2744 123.5830 440.1406 123.9521Q442.7451 124.4854 444.7651 125.0493Q446.7852 125.6133 448.0054 126.3926Q449.2256 127.1719 449.9536 128.3921Q450.6816 129.6123 450.6816 131.5195"></path>

  
  <line x1="186" y1="158" x2="190" y2="158" class="bracket"></line>
  <line x1="186" y1="158" x2="186" y2="168" class="bracket"></line>
  <line x1="186" y1="168" x2="190" y2="168" class="bracket"></line>
  <path fill="#3b82f6" d="M203.8872 160.4272L199.4438 160.4272L199.4438 163.5630L203.7349 163.5630L203.7349 164.5659L199.4438 164.5659L199.4438 168L198.2314 168L198.2314 159.4370L203.8872 159.4370 M215.6885 159.4370L215.6885 164.8896Q215.6885 166.5845 214.9648 167.3557Q214.2412 168.1270 212.6416 168.1270Q211.0928 168.1270 210.3977 167.3811Q209.7026 166.6353 209.7026 165.0039L209.7026 159.4370L210.9150 159.4370L210.9150 164.8389Q210.9150 166.1338 211.2864 166.6384Q211.6577 167.1431 212.6353 167.1431Q213.6572 167.1431 214.0698 166.6226Q214.4824 166.1021 214.4824 164.7563L214.4824 159.4370 M227.5850 168L222.1069 168L222.1069 159.4370L223.3193 159.4370L223.3193 167.0098L227.5850 167.0098 M239.3862 168L233.9082 168L233.9082 159.4370L235.1206 159.4370L235.1206 167.0098L239.3862 167.0098 M249.8799 165.0547L246.3252 165.0547L246.3252 164.0391L249.8799 164.0391 M263.1665 165.6514Q263.1665 166.8193 262.3127 167.4731Q261.4590 168.1270 259.8784 168.1270Q256.9775 168.1270 256.5078 165.8545L257.6821 165.6196Q257.8599 166.4385 258.4185 166.8098Q258.9771 167.1812 259.9102 167.1812Q260.9194 167.1812 261.4431 166.7876Q261.9668 166.3940 261.9668 165.6704Q261.9668 165.2261 261.7605 164.9468Q261.5542 164.6675 261.2178 164.4897Q260.8813 164.3120 260.4592 164.2009Q260.0371 164.0898 259.6055 163.9819Q258.5835 163.7153 258.1487 163.5059Q257.7139 163.2964 257.4536 163.0266Q257.1934 162.7568 257.0601 162.4077Q256.9268 162.0586 256.9268 161.5889Q256.9268 160.4907 257.6980 159.8972Q258.4692 159.3037 259.9102 159.3037Q261.2559 159.3037 261.9668 159.7734Q262.6777 160.2432 262.9570 161.3604L261.7637 161.5698Q261.6113 160.8589 261.1543 160.5383Q260.6973 160.2178 259.9038 160.2178Q258.1074 160.2178 258.1074 161.5698Q258.1074 161.9507 258.2756 162.1887Q258.4438 162.4268 258.7327 162.5823Q259.0215 162.7378 259.4055 162.8394Q259.7896 162.9409 260.2275 163.0552Q261.1099 163.2773 261.4971 163.4265Q261.8843 163.5757 262.1858 163.7661Q262.4873 163.9565 262.7031 164.2168Q262.9189 164.4771 263.0427 164.8262Q263.1665 165.1753 263.1665 165.6514 M275.1201 160.4272L272.3081 160.4272L272.3081 168L271.1021 168L271.1021 160.4272L268.2900 160.4272L268.2900 159.4370L275.1201 159.4370 M287.4038 168L286.1724 168L285.2964 165.5752L281.7227 165.5752L280.8530 168L279.6089 168L282.8462 159.4370L284.2236 159.4370L287.4038 168M283.8872 161.4556L283.5190 160.3511L283.4429 160.5986L283.0049 161.9443L282.0464 164.6294L284.9854 164.6294 M293.4033 163.6772Q293.4033 165.4102 293.9460 166.2766Q294.4888 167.1431 295.6060 167.1431Q296.2471 167.1431 296.7676 166.7083Q297.2881 166.2734 297.6499 165.3530L298.6592 165.7656Q297.7134 168.1270 295.5933 168.1270Q293.9238 168.1270 293.0256 166.9780Q292.1274 165.8291 292.1274 163.6772Q292.1274 159.3037 295.5298 159.3037Q297.6816 159.3037 298.4878 161.4302L297.4214 161.8428Q297.1865 161.1255 296.6882 160.7097Q296.1899 160.2939 295.5361 160.2939Q294.4507 160.2939 293.9270 161.1128Q293.4033 161.9316 293.4033 163.6772 M311 168L309.5781 168L306.4868 163.9502L305.4521 165.0229L305.4521 168L304.2397 168L304.2397 159.4370L305.4521 159.4370L305.4521 163.7090L309.0830 159.4370L310.5112 159.4370L307.3120 163.0679 M331.4541 165.3340L329.9624 165.3340L329.9624 163.4360L331.4541 163.4360 M358.2114 159.4370L356.8784 168L355.5581 168Q355.0884 166.2480 354.8440 165.3340Q354.5996 164.4199 354.3267 163.2012Q354.1426 163.9946 353.9871 164.6357Q353.8315 165.2769 353.0762 168L351.7559 168L350.4165 159.4370L351.6162 159.4370L352.3081 164.7373Q352.4097 165.5688 352.5176 166.9336Q352.7207 166.0576 352.8572 165.4863Q352.9937 164.9150 353.7681 162.0903L354.8789 162.0903Q355.3169 163.6963 355.5676 164.6167Q355.8184 165.5371 356.1294 166.9336L356.3516 164.7373L357.0117 159.4370 M369.3398 168L363.2461 168L363.2461 159.4370L369.0796 159.4370L369.0796 160.4272L364.4585 160.4272L364.4585 163.1060L368.6987 163.1060L368.6987 164.0835L364.4585 164.0835L364.4585 167.0098L369.3398 167.0098 M381.3315 165.5879Q381.3315 166.7305 380.4619 167.3652Q379.5923 168 378.0435 168L375.0474 168L375.0474 159.4370L377.6626 159.4370Q380.8110 159.4370 380.8110 161.5127Q380.8110 162.2871 380.3540 162.8076Q379.8970 163.3281 379.1099 163.4868Q380.1699 163.6011 380.7507 164.1660Q381.3315 164.7310 381.3315 165.5879M379.5923 161.6650Q379.5923 160.9858 379.1130 160.6970Q378.6338 160.4082 377.6753 160.4082L376.2598 160.4082L376.2598 163.0488L377.6880 163.0488Q379.5923 163.0488 379.5923 161.6650M380.1064 165.4800Q380.1064 164.7563 379.5415 164.3755Q378.9766 163.9946 377.8594 163.9946L376.2598 163.9946L376.2598 167.0288L377.9482 167.0288Q379.0591 167.0288 379.5828 166.6448Q380.1064 166.2607 380.1064 165.4800 M402.2617 165.3340L400.7700 165.3340L400.7700 163.4360L402.2617 163.4360 M428.3652 163.6328Q428.3652 165.7339 427.3909 166.8669Q426.4165 168 424.6011 168L422.2524 168L422.2524 159.4370L424.2266 159.4370Q426.3149 159.4370 427.3401 160.4812Q428.3652 161.5254 428.3652 163.6328M427.1465 163.6328Q427.1465 161.9570 426.4482 161.1921Q425.7500 160.4272 424.2329 160.4272L423.4648 160.4272L423.4648 167.0098L424.4932 167.0098Q425.8389 167.0098 426.4927 166.1655Q427.1465 165.3213 427.1465 163.6328 M440.1475 168L434.0537 168L434.0537 159.4370L439.8872 159.4370L439.8872 160.4272L435.2661 160.4272L435.2661 163.1060L439.5063 163.1060L439.5063 164.0835L435.2661 164.0835L435.2661 167.0098L440.1475 167.0098 M452.5581 159.4370L449.3525 168L448.0957 168L444.8901 159.4370L446.1660 159.4370L448.1973 165.1626Q448.3940 165.7085 448.7305 166.9336Q448.9844 165.9878 449.2637 165.1626L451.2822 159.4370 M463.7754 163.6772Q463.7754 165.8164 462.9343 166.9717Q462.0933 168.1270 460.5190 168.1270Q458.9385 168.1270 458.1069 166.9907Q457.2754 165.8545 457.2754 163.6772Q457.2754 161.5381 458.1006 160.4209Q458.9258 159.3037 460.5317 159.3037Q462.0996 159.3037 462.9375 160.4050Q463.7754 161.5063 463.7754 163.6772M462.4995 163.6772Q462.4995 160.2939 460.5317 160.2939Q458.5513 160.2939 458.5513 163.6772Q458.5513 165.3911 459.0527 166.2671Q459.5542 167.1431 460.5254 167.1431Q461.5601 167.1431 462.0298 166.2544Q462.4995 165.3657 462.4995 163.6772 M475.5322 162.0015Q475.5322 162.7949 475.1545 163.4170Q474.7769 164.0391 474.0754 164.3882Q473.3740 164.7373 472.4536 164.7373L470.6699 164.7373L470.6699 168L469.4575 168L469.4575 159.4370L472.3774 159.4370Q473.8882 159.4370 474.7102 160.1130Q475.5322 160.7891 475.5322 162.0015M474.3135 162.0205Q474.3135 160.4082 472.2314 160.4082L470.6699 160.4082L470.6699 163.7788L472.2822 163.7788Q473.2280 163.7788 473.7708 163.3154Q474.3135 162.8521 474.3135 162.0205 M487.3906 165.6514Q487.3906 166.8193 486.5369 167.4731Q485.6831 168.1270 484.1025 168.1270Q481.2017 168.1270 480.7319 165.8545L481.9063 165.6196Q482.0840 166.4385 482.6426 166.8098Q483.2012 167.1812 484.1343 167.1812Q485.1436 167.1812 485.6672 166.7876Q486.1909 166.3940 486.1909 165.6704Q486.1909 165.2261 485.9846 164.9468Q485.7783 164.6675 485.4419 164.4897Q485.1055 164.3120 484.6833 164.2009Q484.2612 164.0898 483.8296 163.9819Q482.8076 163.7153 482.3728 163.5059Q481.9380 163.2964 481.6777 163.0266Q481.4175 162.7568 481.2842 162.4077Q481.1509 162.0586 481.1509 161.5889Q481.1509 160.4907 481.9221 159.8972Q482.6934 159.3037 484.1343 159.3037Q485.4800 159.3037 486.1909 159.7734Q486.9019 160.2432 487.1812 161.3604L485.9878 161.5698Q485.8354 160.8589 485.3784 160.5383Q484.9214 160.2178 484.1279 160.2178Q482.3315 160.2178 482.3315 161.5698Q482.3315 161.9507 482.4998 162.1887Q482.6680 162.4268 482.9568 162.5823Q483.2456 162.7378 483.6296 162.8394Q484.0137 162.9409 484.4517 163.0552Q485.3340 163.2773 485.7212 163.4265Q486.1084 163.5757 486.4099 163.7661Q486.7114 163.9565 486.9272 164.2168Q487.1431 164.4771 487.2668 164.8262Q487.3906 165.1753 487.3906 165.6514"></path>
  <line x1="488"   y1="158" x2="492" y2="158" class="bracket"></line>
  <line x1="492" y1="158" x2="492" y2="168" class="bracket"></line>
  <line x1="488"   y1="168" x2="492" y2="168" class="bracket"></line>
</symbol>
<symbol viewBox="0 0 680 240" role="img" id="UtlogiclabsLogoOutlined">
  <title>UTLogicLabs logo</title>
  <desc>UTLogicLabs wordmark — UT and Labs in electric blue, Logic in teal</desc>

  <style>
    .mark-bg  { fill: #0d1117; }
    .trace    { stroke: #3b82f6; stroke-width: 1.5; fill: none; }
    .trace-dim{ stroke: #1a2a4a; stroke-width: 1;   fill: none; }
    .node-outer { fill: #0d1117; stroke: #3b82f6; stroke-width: 1.5; }
    .node-inner { fill: #3b82f6; }
    .node-dim   { fill: #1a2a4a; }
    .bracket    { fill: none; stroke: #3b82f6; stroke-width: 2; }
  </style>

  
  <rect x="40" y="60" width="120" height="120" rx="8" class="mark-bg" stroke="#1a2a4a" stroke-width="1"></rect>

  <line x1="60" y1="80" x2="60" y2="100" class="trace-dim"></line>
  <line x1="60" y1="100" x2="80" y2="100" class="trace-dim"></line>
  <line x1="140" y1="160" x2="140" y2="140" class="trace-dim"></line>
  <line x1="140" y1="140" x2="120" y2="140" class="trace-dim"></line>
  <line x1="100" y1="80" x2="100" y2="60" class="trace-dim" stroke-dasharray="3 3"></line>
  <line x1="140" y1="100" x2="160" y2="100" class="trace-dim" stroke-dasharray="3 3"></line>

  <polyline points="60,90 60,120 80,120" class="trace"></polyline>
  <polyline points="100,90 100,120" class="trace"></polyline>
  <polyline points="100,120 120,120 120,150 140,150" class="trace"></polyline>
  <polyline points="140,90 140,120 120,120" class="trace"></polyline>
  <polyline points="60,150 80,150 80,120" class="trace"></polyline>
  <polyline points="80,150 100,150 100,120" class="trace"></polyline>

  <circle cx="60" cy="80" r="4" class="node-dim"></circle>
  <circle cx="140" cy="160" r="4" class="node-dim"></circle>

  <circle cx="60" cy="90" r="5" class="node-outer"></circle><circle cx="60" cy="90" r="2.5" class="node-inner"></circle>
  <circle cx="100" cy="90" r="5" class="node-outer"></circle><circle cx="100" cy="90" r="2.5" class="node-inner"></circle>
  <circle cx="140" cy="90" r="5" class="node-outer"></circle><circle cx="140" cy="90" r="2.5" class="node-inner"></circle>
  <circle cx="80" cy="120" r="4" class="node-outer"></circle><circle cx="80" cy="120" r="2" class="node-inner"></circle>
  <circle cx="100" cy="120" r="6" class="node-outer" stroke-width="2"></circle><circle cx="100" cy="120" r="3" class="node-inner"></circle>
  <circle cx="120" cy="120" r="4" class="node-outer"></circle><circle cx="120" cy="120" r="2" class="node-inner"></circle>
  <circle cx="60" cy="150" r="5" class="node-outer"></circle><circle cx="60" cy="150" r="2.5" class="node-inner"></circle>
  <circle cx="80" cy="150" r="4" class="node-outer"></circle><circle cx="80" cy="150" r="2" class="node-inner"></circle>
  <circle cx="100" cy="150" r="5" class="node-outer"></circle><circle cx="100" cy="150" r="2.5" class="node-inner"></circle>
  <circle cx="140" cy="150" r="5" class="node-outer"></circle><circle cx="140" cy="150" r="2.5" class="node-inner"></circle>

  
  <path fill="#3b82f6" d="M198.2842 138.4102Q193.2393 138.4102 190.9424 135.6621Q188.6455 132.9141 188.6455 127.1719L188.6455 110.3350L194.6953 110.3350L194.6953 127.1104Q194.6953 130.6992 195.5259 132.1860Q196.3564 133.6729 198.4482 133.6729Q200.5811 133.6729 201.5449 132.0938Q202.5088 130.5146 202.5088 126.9053L202.5088 110.3350L208.5586 110.3350L208.5586 126.8643Q208.5586 132.7295 206.0259 135.5698Q203.4932 138.4102 198.2842 138.4102 M234.1572 115.0107L225.8311 115.0107L225.8311 138L219.7813 138L219.7813 115.0107L211.4551 115.0107L211.4551 110.3350L234.1572 110.3350"></path>
  <path fill="#00d4a0" d="M257.4180 138L238.7354 138L238.7354 110.3350L244.7852 110.3350L244.7852 133.3242L257.4180 133.3242 M281.9297 126.8848Q281.9297 132.4014 279.1406 135.4058Q276.3516 138.4102 271.1221 138.4102Q266.0771 138.4102 263.2881 135.4058Q260.4990 132.4014 260.4990 126.8848Q260.4990 121.3887 263.2676 118.3945Q266.0361 115.4004 271.2451 115.4004Q281.9297 115.4004 281.9297 126.8848M275.9004 126.8848Q275.9004 122.9473 274.8545 121.1528Q273.8086 119.3584 271.3271 119.3584Q268.7842 119.3584 267.6665 121.1631Q266.5488 122.9678 266.5488 126.8848Q266.5488 130.8428 267.6870 132.6577Q268.8252 134.4727 271.0605 134.4727Q273.6035 134.4727 274.7520 132.6782Q275.9004 130.8838 275.9004 126.8848 M295.4492 146.9004Q291.6348 146.9004 289.2354 145.3213Q286.8359 143.7422 286.2822 140.9326L292.0449 140.2559Q292.3525 141.5889 293.3164 142.3682Q294.2803 143.1475 295.6133 143.1475Q297.6846 143.1475 298.7510 141.6606Q299.8174 140.1738 299.8174 137.2412L299.8174 136.0313L299.8584 133.6729L299.8174 133.6729Q297.9102 137.7539 293.0908 137.7539Q289.4199 137.7539 287.3896 134.8931Q285.3594 132.0322 285.3594 126.7207Q285.3594 121.3477 287.4717 118.4048Q289.5840 115.4619 293.5215 115.4619Q295.6748 115.4619 297.2949 116.4565Q298.9150 117.4512 299.8174 119.3789L299.9199 119.3789Q299.9199 118.6611 300.0122 117.4307Q300.1045 116.2002 300.2070 115.8105L305.6621 115.8105Q305.5391 118.0254 305.5391 120.9375L305.5391 137.3232Q305.5391 141.9785 302.9243 144.4395Q300.3096 146.9004 295.4492 146.9004M299.8584 126.5977Q299.8584 123.2344 298.7100 121.3271Q297.5615 119.4199 295.5723 119.4199Q293.5215 119.4199 292.4448 121.2759Q291.3682 123.1318 291.3682 126.7207Q291.3682 130.2891 292.4756 132.0220Q293.5830 133.7549 295.5313 133.7549Q297.6230 133.7549 298.7407 131.8271Q299.8584 129.8994 299.8584 126.5977 M323.3037 115.8105L323.3037 134.1035L330.5430 134.1035L330.5430 138L309.4404 138L309.4404 134.1035L317.5410 134.1035L317.5410 119.7070L311.5938 119.7070L311.5938 115.8105L323.3037 115.8105M323.3037 111.8115L317.5410 111.8115L317.5410 107.5664L323.3037 107.5664 M344.0215 138.4102Q338.9766 138.4102 336.2285 135.4058Q333.4805 132.4014 333.4805 127.0283Q333.4805 121.5322 336.2490 118.4663Q339.0176 115.4004 344.1035 115.4004Q348.0205 115.4004 350.5840 117.3691Q353.1475 119.3379 353.8037 122.8037L348 123.0908Q347.7539 121.3887 346.7695 120.3735Q345.7852 119.3584 343.9805 119.3584Q339.5303 119.3584 339.5303 126.8027Q339.5303 134.4727 344.0625 134.4727Q345.7031 134.4727 346.8105 133.4370Q347.9180 132.4014 348.1846 130.3506L353.9678 130.6172Q353.6602 132.8936 352.3374 134.6777Q351.0146 136.4619 348.8613 137.4360Q346.7080 138.4102 344.0215 138.4102"></path>
  <path fill="#3b82f6" d="M378.4385 138L359.7559 138L359.7559 110.3350L365.8057 110.3350L365.8057 133.3242L378.4385 133.3242 M388.6357 138.4102Q385.4160 138.4102 383.6113 136.6567Q381.8066 134.9033 381.8066 131.7246Q381.8066 128.2793 383.9497 126.4849Q386.0928 124.6904 390.3584 124.6289L394.9316 124.5469L394.9316 123.4189Q394.9316 121.3066 394.2139 120.2197Q393.4961 119.1328 391.8965 119.1328Q390.3994 119.1328 389.6919 119.8813Q388.9844 120.6299 388.8203 122.2705L382.8115 121.9834Q383.9189 115.4004 392.1426 115.4004Q396.2852 115.4004 398.4897 117.4307Q400.6943 119.4609 400.6943 123.3984L400.6943 131.4375Q400.6943 133.3037 401.1147 134.0112Q401.5352 134.7188 402.5195 134.7188Q403.1758 134.7188 403.7910 134.5957L403.7910 137.7129Q403.2783 137.8359 402.8682 137.9385Q402.4580 138.0410 402.0479 138.1025Q401.6377 138.1641 401.1763 138.2051Q400.7148 138.2461 400.0996 138.2461Q397.9258 138.2461 396.8901 137.1797Q395.8545 136.1133 395.6494 134.0420L395.5264 134.0420Q394.2344 136.3594 392.5835 137.3848Q390.9326 138.4102 388.6357 138.4102M394.9316 128.8535L394.9316 127.7256L392.1836 127.7666Q390.3379 127.8076 389.5073 128.1460Q388.6768 128.4844 388.2461 129.2329Q387.8154 129.9814 387.8154 131.2734Q387.8154 134.3906 390.2764 134.3906Q392.2656 134.3906 393.5986 132.8218Q394.9316 131.2529 394.9316 128.8535 M412.2861 138L406.7080 138Q406.8721 135.2109 406.8721 133.1602L406.8721 107.5664L412.6348 107.5664L412.6348 115.6465L412.5938 119.2969L412.6348 119.2969Q413.4756 117.4307 415.1675 116.4053Q416.8594 115.3799 419.1357 115.3799Q422.9502 115.3799 425.0010 118.3945Q427.0518 121.4092 427.0518 126.9258Q427.0518 132.1348 424.8779 135.2725Q422.7041 138.4102 418.9512 138.4102Q416.8184 138.4102 415.2085 137.3950Q413.5986 136.3799 412.6758 134.3906L412.5938 134.3906Q412.5938 135.0674 412.5015 136.2671Q412.4092 137.4668 412.2861 138M412.5527 126.7822Q412.5527 129.2432 413.0962 130.9453Q413.6396 132.6475 414.6343 133.5601Q415.6289 134.4727 416.9209 134.4727Q418.8896 134.4727 419.9663 132.5859Q421.0430 130.6992 421.0430 126.9258Q421.0430 123.1729 419.9868 121.2349Q418.9307 119.2969 416.8799 119.2969Q414.8701 119.2969 413.7114 121.2656Q412.5527 123.2344 412.5527 126.7822 M450.6816 131.5195Q450.6816 134.7393 448.0464 136.5747Q445.4111 138.4102 440.7559 138.4102Q436.1826 138.4102 433.7524 136.9644Q431.3223 135.5186 430.5225 132.4629L435.5879 131.7041Q436.0186 133.2832 437.0747 133.9395Q438.1309 134.5957 440.7559 134.5957Q443.1758 134.5957 444.2832 133.9805Q445.3906 133.3652 445.3906 132.0527Q445.3906 130.9863 444.4985 130.3608Q443.6064 129.7354 441.4736 129.3047Q436.5928 128.3408 434.8906 127.5103Q433.1885 126.6797 432.2964 125.3569Q431.4043 124.0342 431.4043 122.1064Q431.4043 118.9277 433.8550 117.1538Q436.3057 115.3799 440.7969 115.3799Q444.7549 115.3799 447.1646 116.9180Q449.5742 118.4561 450.1689 121.3682L445.0625 121.9014Q444.8164 120.5479 443.8525 119.8813Q442.8887 119.2148 440.7969 119.2148Q438.7461 119.2148 437.7207 119.7378Q436.6953 120.2607 436.6953 121.4912Q436.6953 122.4551 437.4849 123.0190Q438.2744 123.5830 440.1406 123.9521Q442.7451 124.4854 444.7651 125.0493Q446.7852 125.6133 448.0054 126.3926Q449.2256 127.1719 449.9536 128.3921Q450.6816 129.6123 450.6816 131.5195"></path>

  
  <line x1="186" y1="158" x2="190" y2="158" class="bracket"></line>
  <line x1="186" y1="158" x2="186" y2="168" class="bracket"></line>
  <line x1="186" y1="168" x2="190" y2="168" class="bracket"></line>
  <path fill="#3b82f6" d="M203.8872 160.4272L199.4438 160.4272L199.4438 163.5630L203.7349 163.5630L203.7349 164.5659L199.4438 164.5659L199.4438 168L198.2314 168L198.2314 159.4370L203.8872 159.4370 M215.6885 159.4370L215.6885 164.8896Q215.6885 166.5845 214.9648 167.3557Q214.2412 168.1270 212.6416 168.1270Q211.0928 168.1270 210.3977 167.3811Q209.7026 166.6353 209.7026 165.0039L209.7026 159.4370L210.9150 159.4370L210.9150 164.8389Q210.9150 166.1338 211.2864 166.6384Q211.6577 167.1431 212.6353 167.1431Q213.6572 167.1431 214.0698 166.6226Q214.4824 166.1021 214.4824 164.7563L214.4824 159.4370 M227.5850 168L222.1069 168L222.1069 159.4370L223.3193 159.4370L223.3193 167.0098L227.5850 167.0098 M239.3862 168L233.9082 168L233.9082 159.4370L235.1206 159.4370L235.1206 167.0098L239.3862 167.0098 M249.8799 165.0547L246.3252 165.0547L246.3252 164.0391L249.8799 164.0391 M263.1665 165.6514Q263.1665 166.8193 262.3127 167.4731Q261.4590 168.1270 259.8784 168.1270Q256.9775 168.1270 256.5078 165.8545L257.6821 165.6196Q257.8599 166.4385 258.4185 166.8098Q258.9771 167.1812 259.9102 167.1812Q260.9194 167.1812 261.4431 166.7876Q261.9668 166.3940 261.9668 165.6704Q261.9668 165.2261 261.7605 164.9468Q261.5542 164.6675 261.2178 164.4897Q260.8813 164.3120 260.4592 164.2009Q260.0371 164.0898 259.6055 163.9819Q258.5835 163.7153 258.1487 163.5059Q257.7139 163.2964 257.4536 163.0266Q257.1934 162.7568 257.0601 162.4077Q256.9268 162.0586 256.9268 161.5889Q256.9268 160.4907 257.6980 159.8972Q258.4692 159.3037 259.9102 159.3037Q261.2559 159.3037 261.9668 159.7734Q262.6777 160.2432 262.9570 161.3604L261.7637 161.5698Q261.6113 160.8589 261.1543 160.5383Q260.6973 160.2178 259.9038 160.2178Q258.1074 160.2178 258.1074 161.5698Q258.1074 161.9507 258.2756 162.1887Q258.4438 162.4268 258.7327 162.5823Q259.0215 162.7378 259.4055 162.8394Q259.7896 162.9409 260.2275 163.0552Q261.1099 163.2773 261.4971 163.4265Q261.8843 163.5757 262.1858 163.7661Q262.4873 163.9565 262.7031 164.2168Q262.9189 164.4771 263.0427 164.8262Q263.1665 165.1753 263.1665 165.6514 M275.1201 160.4272L272.3081 160.4272L272.3081 168L271.1021 168L271.1021 160.4272L268.2900 160.4272L268.2900 159.4370L275.1201 159.4370 M287.4038 168L286.1724 168L285.2964 165.5752L281.7227 165.5752L280.8530 168L279.6089 168L282.8462 159.4370L284.2236 159.4370L287.4038 168M283.8872 161.4556L283.5190 160.3511L283.4429 160.5986L283.0049 161.9443L282.0464 164.6294L284.9854 164.6294 M293.4033 163.6772Q293.4033 165.4102 293.9460 166.2766Q294.4888 167.1431 295.6060 167.1431Q296.2471 167.1431 296.7676 166.7083Q297.2881 166.2734 297.6499 165.3530L298.6592 165.7656Q297.7134 168.1270 295.5933 168.1270Q293.9238 168.1270 293.0256 166.9780Q292.1274 165.8291 292.1274 163.6772Q292.1274 159.3037 295.5298 159.3037Q297.6816 159.3037 298.4878 161.4302L297.4214 161.8428Q297.1865 161.1255 296.6882 160.7097Q296.1899 160.2939 295.5361 160.2939Q294.4507 160.2939 293.9270 161.1128Q293.4033 161.9316 293.4033 163.6772 M311 168L309.5781 168L306.4868 163.9502L305.4521 165.0229L305.4521 168L304.2397 168L304.2397 159.4370L305.4521 159.4370L305.4521 163.7090L309.0830 159.4370L310.5112 159.4370L307.3120 163.0679 M331.4541 165.3340L329.9624 165.3340L329.9624 163.4360L331.4541 163.4360 M358.2114 159.4370L356.8784 168L355.5581 168Q355.0884 166.2480 354.8440 165.3340Q354.5996 164.4199 354.3267 163.2012Q354.1426 163.9946 353.9871 164.6357Q353.8315 165.2769 353.0762 168L351.7559 168L350.4165 159.4370L351.6162 159.4370L352.3081 164.7373Q352.4097 165.5688 352.5176 166.9336Q352.7207 166.0576 352.8572 165.4863Q352.9937 164.9150 353.7681 162.0903L354.8789 162.0903Q355.3169 163.6963 355.5676 164.6167Q355.8184 165.5371 356.1294 166.9336L356.3516 164.7373L357.0117 159.4370 M369.3398 168L363.2461 168L363.2461 159.4370L369.0796 159.4370L369.0796 160.4272L364.4585 160.4272L364.4585 163.1060L368.6987 163.1060L368.6987 164.0835L364.4585 164.0835L364.4585 167.0098L369.3398 167.0098 M381.3315 165.5879Q381.3315 166.7305 380.4619 167.3652Q379.5923 168 378.0435 168L375.0474 168L375.0474 159.4370L377.6626 159.4370Q380.8110 159.4370 380.8110 161.5127Q380.8110 162.2871 380.3540 162.8076Q379.8970 163.3281 379.1099 163.4868Q380.1699 163.6011 380.7507 164.1660Q381.3315 164.7310 381.3315 165.5879M379.5923 161.6650Q379.5923 160.9858 379.1130 160.6970Q378.6338 160.4082 377.6753 160.4082L376.2598 160.4082L376.2598 163.0488L377.6880 163.0488Q379.5923 163.0488 379.5923 161.6650M380.1064 165.4800Q380.1064 164.7563 379.5415 164.3755Q378.9766 163.9946 377.8594 163.9946L376.2598 163.9946L376.2598 167.0288L377.9482 167.0288Q379.0591 167.0288 379.5828 166.6448Q380.1064 166.2607 380.1064 165.4800 M402.2617 165.3340L400.7700 165.3340L400.7700 163.4360L402.2617 163.4360 M428.3652 163.6328Q428.3652 165.7339 427.3909 166.8669Q426.4165 168 424.6011 168L422.2524 168L422.2524 159.4370L424.2266 159.4370Q426.3149 159.4370 427.3401 160.4812Q428.3652 161.5254 428.3652 163.6328M427.1465 163.6328Q427.1465 161.9570 426.4482 161.1921Q425.7500 160.4272 424.2329 160.4272L423.4648 160.4272L423.4648 167.0098L424.4932 167.0098Q425.8389 167.0098 426.4927 166.1655Q427.1465 165.3213 427.1465 163.6328 M440.1475 168L434.0537 168L434.0537 159.4370L439.8872 159.4370L439.8872 160.4272L435.2661 160.4272L435.2661 163.1060L439.5063 163.1060L439.5063 164.0835L435.2661 164.0835L435.2661 167.0098L440.1475 167.0098 M452.5581 159.4370L449.3525 168L448.0957 168L444.8901 159.4370L446.1660 159.4370L448.1973 165.1626Q448.3940 165.7085 448.7305 166.9336Q448.9844 165.9878 449.2637 165.1626L451.2822 159.4370 M463.7754 163.6772Q463.7754 165.8164 462.9343 166.9717Q462.0933 168.1270 460.5190 168.1270Q458.9385 168.1270 458.1069 166.9907Q457.2754 165.8545 457.2754 163.6772Q457.2754 161.5381 458.1006 160.4209Q458.9258 159.3037 460.5317 159.3037Q462.0996 159.3037 462.9375 160.4050Q463.7754 161.5063 463.7754 163.6772M462.4995 163.6772Q462.4995 160.2939 460.5317 160.2939Q458.5513 160.2939 458.5513 163.6772Q458.5513 165.3911 459.0527 166.2671Q459.5542 167.1431 460.5254 167.1431Q461.5601 167.1431 462.0298 166.2544Q462.4995 165.3657 462.4995 163.6772 M475.5322 162.0015Q475.5322 162.7949 475.1545 163.4170Q474.7769 164.0391 474.0754 164.3882Q473.3740 164.7373 472.4536 164.7373L470.6699 164.7373L470.6699 168L469.4575 168L469.4575 159.4370L472.3774 159.4370Q473.8882 159.4370 474.7102 160.1130Q475.5322 160.7891 475.5322 162.0015M474.3135 162.0205Q474.3135 160.4082 472.2314 160.4082L470.6699 160.4082L470.6699 163.7788L472.2822 163.7788Q473.2280 163.7788 473.7708 163.3154Q474.3135 162.8521 474.3135 162.0205 M487.3906 165.6514Q487.3906 166.8193 486.5369 167.4731Q485.6831 168.1270 484.1025 168.1270Q481.2017 168.1270 480.7319 165.8545L481.9063 165.6196Q482.0840 166.4385 482.6426 166.8098Q483.2012 167.1812 484.1343 167.1812Q485.1436 167.1812 485.6672 166.7876Q486.1909 166.3940 486.1909 165.6704Q486.1909 165.2261 485.9846 164.9468Q485.7783 164.6675 485.4419 164.4897Q485.1055 164.3120 484.6833 164.2009Q484.2612 164.0898 483.8296 163.9819Q482.8076 163.7153 482.3728 163.5059Q481.9380 163.2964 481.6777 163.0266Q481.4175 162.7568 481.2842 162.4077Q481.1509 162.0586 481.1509 161.5889Q481.1509 160.4907 481.9221 159.8972Q482.6934 159.3037 484.1343 159.3037Q485.4800 159.3037 486.1909 159.7734Q486.9019 160.2432 487.1812 161.3604L485.9878 161.5698Q485.8354 160.8589 485.3784 160.5383Q484.9214 160.2178 484.1279 160.2178Q482.3315 160.2178 482.3315 161.5698Q482.3315 161.9507 482.4998 162.1887Q482.6680 162.4268 482.9568 162.5823Q483.2456 162.7378 483.6296 162.8394Q484.0137 162.9409 484.4517 163.0552Q485.3340 163.2773 485.7212 163.4265Q486.1084 163.5757 486.4099 163.7661Q486.7114 163.9565 486.9272 164.2168Q487.1431 164.4771 487.2668 164.8262Q487.3906 165.1753 487.3906 165.6514"></path>
  <line x1="488" y1="158" x2="492" y2="158" class="bracket"></line>
  <line x1="492" y1="158" x2="492" y2="168" class="bracket"></line>
  <line x1="488" y1="168" x2="492" y2="168" class="bracket"></line>
</symbol>
<symbol viewBox="0 0 680 240" role="img" id="UtlogiclabsLogo">
  <title>UTLogicLabs logo</title>
  <desc>UTLogicLabs wordmark — UT and Labs in electric blue, Logic in teal</desc>

  <style>
    .mark-bg { fill: #0d1117; }
    .trace { stroke: #3b82f6; stroke-width: 1.5; fill: none; }
    .trace-dim { stroke: #1a2a4a; stroke-width: 1; fill: none; }
    .node-outer { fill: #0d1117; stroke: #3b82f6; stroke-width: 1.5; }
    .node-inner { fill: #3b82f6; }
    .node-dim { fill: #1a2a4a; }
    .wordmark-primary { font-family: 'Courier New', monospace; font-weight: 700; font-size: 42px; fill: #e6edf3; letter-spacing: -1px; }
    .wordmark-blue { fill: #3b82f6; }
    .wordmark-teal { fill: #00d4a0; }
    .wordmark-sub { font-family: 'Courier New', monospace; font-weight: 400; font-size: 13px; fill: #3b82f6; letter-spacing: 4px; }
    .bracket { fill: none; stroke: #3b82f6; stroke-width: 2; }
  </style>

  <rect x="40" y="60" width="120" height="120" rx="8" class="mark-bg" stroke="#1a2a4a" stroke-width="1"></rect>

  <line x1="60" y1="80" x2="60" y2="100" class="trace-dim"></line>
  <line x1="60" y1="100" x2="80" y2="100" class="trace-dim"></line>
  <line x1="140" y1="160" x2="140" y2="140" class="trace-dim"></line>
  <line x1="140" y1="140" x2="120" y2="140" class="trace-dim"></line>
  <line x1="100" y1="80" x2="100" y2="60" class="trace-dim" stroke-dasharray="3 3"></line>
  <line x1="140" y1="100" x2="160" y2="100" class="trace-dim" stroke-dasharray="3 3"></line>

  <polyline points="60,90 60,120 80,120" class="trace"></polyline>
  <polyline points="100,90 100,120" class="trace"></polyline>
  <polyline points="100,120 120,120 120,150 140,150" class="trace"></polyline>
  <polyline points="140,90 140,120 120,120" class="trace"></polyline>
  <polyline points="60,150 80,150 80,120" class="trace"></polyline>
  <polyline points="80,150 100,150 100,120" class="trace"></polyline>

  <circle cx="60" cy="80" r="4" class="node-dim"></circle>
  <circle cx="140" cy="160" r="4" class="node-dim"></circle>

  <circle cx="60" cy="90" r="5" class="node-outer"></circle>
  <circle cx="60" cy="90" r="2.5" class="node-inner"></circle>
  <circle cx="100" cy="90" r="5" class="node-outer"></circle>
  <circle cx="100" cy="90" r="2.5" class="node-inner"></circle>
  <circle cx="140" cy="90" r="5" class="node-outer"></circle>
  <circle cx="140" cy="90" r="2.5" class="node-inner"></circle>
  <circle cx="80" cy="120" r="4" class="node-outer"></circle>
  <circle cx="80" cy="120" r="2" class="node-inner"></circle>
  <circle cx="100" cy="120" r="6" class="node-outer" stroke-width="2"></circle>
  <circle cx="100" cy="120" r="3" class="node-inner"></circle>
  <circle cx="120" cy="120" r="4" class="node-outer"></circle>
  <circle cx="120" cy="120" r="2" class="node-inner"></circle>
  <circle cx="60" cy="150" r="5" class="node-outer"></circle>
  <circle cx="60" cy="150" r="2.5" class="node-inner"></circle>
  <circle cx="80" cy="150" r="4" class="node-outer"></circle>
  <circle cx="80" cy="150" r="2" class="node-inner"></circle>
  <circle cx="100" cy="150" r="5" class="node-outer"></circle>
  <circle cx="100" cy="150" r="2.5" class="node-inner"></circle>
  <circle cx="140" cy="150" r="5" class="node-outer"></circle>
  <circle cx="140" cy="150" r="2.5" class="node-inner"></circle>

  <text x="186" y="138" class="wordmark-primary"><tspan class="wordmark-blue">UT</tspan><tspan class="wordmark-teal">Logic</tspan><tspan class="wordmark-blue">Labs</tspan></text>

  <line x1="186" y1="158" x2="190" y2="158" class="bracket"></line>
  <line x1="186" y1="158" x2="186" y2="168" class="bracket"></line>
  <line x1="186" y1="168" x2="190" y2="168" class="bracket"></line>
  <text x="197" y="168" class="wordmark-sub">FULL-STACK · WEB · DEVOPS</text>
  <line x1="508" y1="158" x2="512" y2="158" class="bracket"></line>
  <line x1="512" y1="158" x2="512" y2="168" class="bracket"></line>
  <line x1="508" y1="168" x2="512" y2="168" class="bracket"></line>
</symbol>
</defs>
</svg>