<svg width="64" height="64" viewBox="0 0 64 64" xmlns="http://www.w3.org/2000/svg">
  <rect width="64" height="64" rx="10" fill="#0d1117"/>
  <!-- traces -->
  <polyline points="13,21 13,32 21,32" fill="none" stroke="#3b82f6" stroke-width="2" stroke-linejoin="round"/>
  <polyline points="32,21 32,32" fill="none" stroke="#3b82f6" stroke-width="2"/>
  <polyline points="32,32 43,32 43,43 51,43" fill="none" stroke="#3b82f6" stroke-width="2" stroke-linejoin="round"/>
  <polyline points="51,21 51,32 43,32" fill="none" stroke="#3b82f6" stroke-width="2" stroke-linejoin="round"/>
  <polyline points="13,43 21,43 21,32" fill="none" stroke="#3b82f6" stroke-width="2" stroke-linejoin="round"/>
  <polyline points="21,43 32,43 32,32" fill="none" stroke="#3b82f6" stroke-width="2" stroke-linejoin="round"/>
  <!-- nodes top row -->
  <circle cx="13" cy="21" r="3"   fill="#0d1117" stroke="#3b82f6" stroke-width="1.5"/>
  <circle cx="13" cy="21" r="1.3" fill="#3b82f6"/>
  <circle cx="32" cy="21" r="3"   fill="#0d1117" stroke="#3b82f6" stroke-width="1.5"/>
  <circle cx="32" cy="21" r="1.3" fill="#3b82f6"/>
  <circle cx="51" cy="21" r="3"   fill="#0d1117" stroke="#3b82f6" stroke-width="1.5"/>
  <circle cx="51" cy="21" r="1.3" fill="#3b82f6"/>
  <!-- nodes mid row -->
  <circle cx="21" cy="32" r="2.5" fill="#0d1117" stroke="#3b82f6" stroke-width="1.5"/>
  <circle cx="21" cy="32" r="1"   fill="#3b82f6"/>
  <circle cx="32" cy="32" r="3.5" fill="#0d1117" stroke="#00d4a0" stroke-width="1.5"/>
  <circle cx="32" cy="32" r="1.5" fill="#00d4a0"/>
  <circle cx="43" cy="32" r="2.5" fill="#0d1117" stroke="#3b82f6" stroke-width="1.5"/>
  <circle cx="43" cy="32" r="1"   fill="#3b82f6"/>
  <!-- nodes bottom row -->
  <circle cx="13" cy="43" r="3"   fill="#0d1117" stroke="#3b82f6" stroke-width="1.5"/>
  <circle cx="13" cy="43" r="1.3" fill="#3b82f6"/>
  <circle cx="21" cy="43" r="2.5" fill="#0d1117" stroke="#3b82f6" stroke-width="1.5"/>
  <circle cx="21" cy="43" r="1"   fill="#3b82f6"/>
  <circle cx="32" cy="43" r="3"   fill="#0d1117" stroke="#3b82f6" stroke-width="1.5"/>
  <circle cx="32" cy="43" r="1.3" fill="#3b82f6"/>
  <circle cx="51" cy="43" r="3"   fill="#0d1117" stroke="#3b82f6" stroke-width="1.5"/>
  <circle cx="51" cy="43" r="1.3" fill="#3b82f6"/>
</svg>