<svg viewBox="0 0 16 16" fill="currentColor" width="32" height="32" xmlns="http://www.w3.org/2000/svg" xmlns:xlink="http://www.w3.org/1999/xlink">
    <path d="M14.25 1C15.216 1 16 1.784 16 2.75v7.5A1.75 1.75 0 0 1 14.25 12h-3.727c0.099 1.041 0.52 1.872 1.292 2.757A0.752 0.752 0 0 1 11.25 16h-6.5a0.75 0.75 0 0 1-0.565-1.243C4.957 13.872 5.377 13.041 5.477 12H1.75A1.75 1.75 0 0 1 0 10.25v-7.5C0 1.784 0.784 1 1.75 1zM1.75 2.5A0.25 0.25 0 0 0 1.5 2.75v7.5c0 0.138 0.112 0.25 0.25 0.25h12.5a0.25 0.25 0 0 0 0.25-0.25v-7.5a0.25 0.25 0 0 0-0.25-0.25zM9.018 12H6.982a5.72 5.72 0 0 1-0.765 2.5h3.566A5.72 5.72 0 0 1 9.018 12z" />
</svg>